<?xml version="1.0" encoding="UTF-8"?>
<!DOCTYPE svg PUBLIC "-//W3C//DTD SVG 1.1//EN" "http://www.w3.org/Graphics/SVG/1.1/DTD/svg11.dtd">
<!-- Creator: CorelDRAW 2020 (64 Bit) -->
<svg xmlns="http://www.w3.org/2000/svg" xml:space="preserve" width="100.013mm" height="66.2mm" version="1.1" style="shape-rendering:geometricPrecision; text-rendering:geometricPrecision; image-rendering:optimizeQuality; fill-rule:evenodd; clip-rule:evenodd"
viewBox="0 0 1628.67 1078.04"
 xmlns:xlink="http://www.w3.org/1999/xlink"
 xmlns:xodm="http://www.corel.com/coreldraw/odm/2003">
 <defs>
  <style type="text/css">
   <![CDATA[
    .str0 {stroke:#990099;stroke-width:1.24;stroke-miterlimit:22.9256}
    .fil0 {fill:none}
    .fil3 {fill:#400763}
    .fil2 {fill:#8141E0}
    .fil1 {fill:#990099}
    .fil4 {fill:fuchsia}
   ]]>
  </style>
 </defs>
 <g id="Camada_x0020_1">
  <metadata id="CorelCorpID_0Corel-Layer"/>
  <g id="_1931467640928">
   <polygon class="fil0" points="-0,0 1628.67,0 1628.67,1078.04 -0,1078.04 "/>
   <g>
    <path class="fil1 str0" d="M572.19 585.08l21.41 2.82c-3.33,12.43 -9.57,22.11 -18.66,28.98 -9.1,6.86 -20.7,10.31 -34.86,10.31 -17.8,0 -31.92,-5.49 -42.35,-16.47 -10.43,-10.94 -15.64,-26.35 -15.64,-46.15 0,-20.47 5.26,-36.39 15.8,-47.68 10.55,-11.33 24.23,-16.98 41.05,-16.98 16.27,0 29.56,5.53 39.88,16.63 10.31,11.1 15.49,26.7 15.49,46.82 0,1.21 -0.04,3.06 -0.12,5.49l-90.93 0c0.78,13.37 4.55,23.64 11.37,30.74 6.78,7.1 15.29,10.66 25.45,10.66 7.57,0 14.04,-2 19.37,-6 5.37,-4 9.61,-10.39 12.74,-19.17zm-67.75 -33.17l67.99 0c-0.9,-10.27 -3.53,-17.96 -7.8,-23.09 -6.55,-7.96 -15.1,-11.96 -25.57,-11.96 -9.49,0 -17.45,3.18 -23.92,9.53 -6.43,6.35 -10,14.86 -10.7,25.52zm195.07 28l20.23 2.82c-2.23,13.92 -7.88,24.78 -17.02,32.66 -9.14,7.88 -20.39,11.8 -33.68,11.8 -16.66,0 -30.07,-5.45 -40.19,-16.35 -10.16,-10.9 -15.21,-26.5 -15.21,-46.82 0,-13.17 2.2,-24.66 6.55,-34.54 4.35,-9.84 10.98,-17.25 19.92,-22.15 8.9,-4.94 18.59,-7.41 29.09,-7.41 13.21,0 24.08,3.33 32.47,10.04 8.43,6.7 13.84,16.23 16.19,28.55l-20 3.06c-1.92,-8.2 -5.29,-14.35 -10.2,-18.51 -4.86,-4.12 -10.74,-6.19 -17.64,-6.19 -10.43,0 -18.9,3.72 -25.45,11.17 -6.51,7.49 -9.76,19.25 -9.76,35.41 0,16.39 3.14,28.27 9.41,35.68 6.31,7.41 14.51,11.14 24.58,11.14 8.16,0 14.94,-2.47 20.35,-7.45 5.45,-4.94 8.9,-12.59 10.35,-22.9zm37.88 44.7l0 -168.45 20.7 0 0 60.62c9.61,-11.25 21.72,-16.86 36.39,-16.86 8.98,0 16.78,1.77 23.45,5.33 6.63,3.57 11.37,8.47 14.23,14.74 2.86,6.27 4.27,15.41 4.27,27.33l0 77.28 -20.7 0 0 -77.21c0,-10.31 -2.24,-17.84 -6.67,-22.54 -4.47,-4.71 -10.74,-7.06 -18.9,-7.06 -6.08,0 -11.8,1.57 -17.17,4.75 -5.37,3.18 -9.17,7.49 -11.49,12.94 -2.27,5.41 -3.41,12.9 -3.41,22.47l0 66.66 -20.7 0zm130.37 0l0 -168.45 20.7 0 0 168.45 -20.7 0zm132.49 0l0 -18.16c-9.49,13.84 -22.35,20.74 -38.62,20.74 -7.18,0 -13.88,-1.37 -20.11,-4.12 -6.23,-2.78 -10.86,-6.24 -13.88,-10.39 -3.02,-4.19 -5.14,-9.29 -6.35,-15.33 -0.82,-4.08 -1.25,-10.51 -1.25,-19.29l0 -75.56 20.7 0 0 67.56c0,10.78 0.43,18.08 1.25,21.8 1.29,5.45 4.04,9.68 8.27,12.78 4.19,3.1 9.37,4.67 15.57,4.67 6.19,0 12,-1.57 17.41,-4.74 5.41,-3.18 9.25,-7.53 11.53,-12.98 2.24,-5.45 3.37,-13.41 3.37,-23.8l0 -65.29 20.7 0 0 122.1 -18.59 0zm51.09 0l0 -122.1 18.59 0 0 17.25c3.8,-5.96 8.9,-10.78 15.25,-14.39 6.35,-3.65 13.57,-5.45 21.68,-5.45 9.02,0 16.43,1.88 22.19,5.61 5.76,3.77 9.84,8.98 12.19,15.72 9.72,-14.23 22.31,-21.33 37.84,-21.33 12.15,0 21.53,3.33 28.04,10.04 6.55,6.7 9.84,17.02 9.84,30.94l0 83.71 -20.7 0 0 -76.85c0,-8.23 -0.71,-14.19 -2.04,-17.84 -1.33,-3.65 -3.76,-6.55 -7.33,-8.78 -3.53,-2.23 -7.69,-3.33 -12.43,-3.33 -8.63,0 -15.76,2.86 -21.45,8.55 -5.68,5.73 -8.51,14.86 -8.51,27.41l0 70.85 -20.7 0 0 -79.24c0,-9.17 -1.69,-16.08 -5.06,-20.66 -3.37,-4.59 -8.9,-6.9 -16.55,-6.9 -5.8,0 -11.17,1.53 -16.12,4.59 -4.94,3.06 -8.51,7.53 -10.74,13.45 -2.2,5.88 -3.29,14.39 -3.29,25.49l0 63.29 -20.7 0zm195.97 0l0 -122.1 20.7 0 0 122.1 -20.7 0z"/>
    <g>
     <polygon class="fil0" points="180.92,513.57 250.34,473.49 319.97,433.29 348.75,449.91 348.75,530.3 348.75,610.46 320.84,626.57 319.76,627.19 250.34,587.11 180.92,547.03 180.92,515.41 "/>
     <line class="fil0" x1="319.97" y1="433.29" x2="319.76" y2= "627.19" />
     <line class="fil0" x1="348.75" y1="610.46" x2="180.92" y2= "513.57" />
     <polygon class="fil0" points="319.86,450.58 319.86,610.93 290.98,610.93 290.98,450.58 "/>
     <polygon class="fil0" points="217.41,501.31 356.28,581.49 341.84,606.5 202.97,526.33 "/>
     <polygon class="fil0" points="217.64,559.07 356.52,478.89 342.07,453.88 203.2,534.05 "/>
     <polygon class="fil2" points="181.09,547.03 291.14,483.34 291.14,543.78 320.03,560.46 320.13,433.28 181.09,513.56 "/>
     <polygon class="fil3" points="319.88,433.23 320.01,560.38 267.67,530.16 238.79,546.84 348.86,610.52 348.86,449.96 "/>
     <polygon class="fil4" points="348.97,610.41 238.79,546.95 291.13,516.73 291.13,483.37 180.94,546.87 319.99,627.14 "/>
    </g>
    <polygon class="fil1" points="441.12,627.18 464.56,627.19 465.04,507.5 441.53,507.49 "/>
    <polygon class="fil1" points="1256.38,437.48 1268.08,417.2 1447.75,520.84 1268.02,624.65 1256.25,604.28 1400.9,520.78 "/>
    <polygon class="fil1" points="342.82,647.36 362,660.85 520.32,436.03 501.1,422.5 "/>
   </g>
  </g>
 </g>
</svg>
