<?xml version="1.0" encoding="UTF-8"?>
<!DOCTYPE svg PUBLIC "-//W3C//DTD SVG 1.1//EN" "http://www.w3.org/Graphics/SVG/1.1/DTD/svg11.dtd">
<!-- Creator: CorelDRAW 2020 (64 Bit) -->
<svg xmlns="http://www.w3.org/2000/svg" xml:space="preserve" width="11.4406mm" height="10.7083mm" version="1.1" style="shape-rendering:geometricPrecision; text-rendering:geometricPrecision; image-rendering:optimizeQuality; fill-rule:evenodd; clip-rule:evenodd"
viewBox="0 0 13.02 12.19"
 xmlns:xlink="http://www.w3.org/1999/xlink"
 xmlns:xodm="http://www.corel.com/coreldraw/odm/2003">
 <defs>
  <style type="text/css">
   <![CDATA[
    .fil1 {fill:black}
    .fil0 {fill:#867A6C}
    .fil2 {fill:white}
    .fil3 {fill:black;fill-rule:nonzero}
   ]]>
  </style>
 </defs>
 <g id="Camada_x0020_1">
  <metadata id="CorelCorpID_0Corel-Layer"/>
  <g id="_1931336410672">
   <g>
    <polygon class="fil0" points="7.43,6.38 10.22,6.38 10.22,0 7.43,0 "/>
    <path class="fil1" d="M10.23 3.39c1.54,0 2.8,-0.76 2.8,-1.7 0,-0.94 -1.25,-1.7 -2.8,-1.7 -1.54,0 -2.8,0.76 -2.8,1.7 0,0.94 1.25,1.7 2.8,1.7z"/>
    <path class="fil2" d="M10.22 0c-1.54,0 -2.79,0.76 -2.79,1.7 0,0.94 1.25,1.69 2.79,1.7l0 -3.39z"/>
    <path class="fil2" d="M10.23 3.39c0.91,0 1.64,-0.45 1.64,-0.99 0,-0.55 -0.73,-0.99 -1.64,-0.99 -0.91,0 -1.64,0.45 -1.64,0.99 0,0.55 0.73,0.99 1.64,0.99z"/>
    <path class="fil1" d="M10.22 1.4c-0.9,0 -1.64,0.45 -1.64,0.99 0,0.55 0.73,0.99 1.64,0.99l0 -1.99z"/>
    <path class="fil0" d="M10.22 2.9c0.42,0 0.76,-0.23 0.76,-0.51 0,-0.28 -0.34,-0.51 -0.76,-0.51 -0.42,0 -0.76,0.23 -0.76,0.51 0,0.28 0.34,0.51 0.76,0.51z"/>
    <path class="fil2" d="M10.22 2.9l0 0 0 -1.01 -0 -0c-0.42,0 -0.76,0.23 -0.76,0.51 0,0.28 0.34,0.51 0.76,0.51z"/>
   </g>
   <path class="fil3" d="M-0 7.16l0.83 0c0.18,0 0.32,0.04 0.41,0.13 0.09,0.09 0.14,0.21 0.14,0.37 0,0.16 -0.05,0.29 -0.15,0.38 -0.1,0.09 -0.25,0.14 -0.45,0.14l-0.27 0 0 0.6 -0.5 0 0 -1.62zm0.5 0.69l0.12 0c0.1,0 0.17,-0.02 0.2,-0.05 0.04,-0.03 0.06,-0.08 0.06,-0.13 0,-0.05 -0.02,-0.09 -0.05,-0.13 -0.03,-0.04 -0.1,-0.05 -0.19,-0.05l-0.14 0 0 0.36zm1.12 -0.69l0.45 0 0 1.62 -0.45 0 0 -1.62zm1.15 0.82l-0.43 -0.05c0.02,-0.08 0.04,-0.13 0.07,-0.18 0.03,-0.04 0.07,-0.08 0.13,-0.11 0.04,-0.02 0.1,-0.04 0.17,-0.05 0.07,-0.01 0.15,-0.02 0.23,-0.02 0.13,0 0.24,0.01 0.32,0.02 0.08,0.02 0.15,0.05 0.2,0.09 0.04,0.03 0.07,0.08 0.09,0.14 0.02,0.06 0.03,0.12 0.03,0.17l0 0.52c0,0.06 0,0.1 0.01,0.13 0.01,0.03 0.02,0.07 0.05,0.12l-0.42 0c-0.02,-0.03 -0.03,-0.05 -0.03,-0.07 -0,-0.02 -0.01,-0.04 -0.02,-0.07 -0.06,0.06 -0.12,0.1 -0.18,0.12 -0.08,0.03 -0.17,0.05 -0.28,0.05 -0.14,0 -0.25,-0.03 -0.32,-0.1 -0.07,-0.06 -0.11,-0.14 -0.11,-0.24 0,-0.09 0.03,-0.16 0.08,-0.22 0.05,-0.06 0.15,-0.1 0.29,-0.13 0.17,-0.03 0.28,-0.06 0.33,-0.07 0.05,-0.01 0.1,-0.03 0.16,-0.05 0,-0.06 -0.01,-0.09 -0.03,-0.12 -0.02,-0.02 -0.06,-0.03 -0.12,-0.03 -0.07,0 -0.13,0.01 -0.17,0.04 -0.03,0.02 -0.05,0.05 -0.07,0.1zm0.39 0.23c-0.06,0.02 -0.13,0.04 -0.19,0.06 -0.09,0.02 -0.15,0.05 -0.17,0.07 -0.03,0.02 -0.04,0.05 -0.04,0.08 0,0.04 0.01,0.07 0.04,0.09 0.02,0.02 0.06,0.03 0.11,0.03 0.05,0 0.1,-0.01 0.14,-0.04 0.04,-0.02 0.07,-0.05 0.09,-0.09 0.02,-0.04 0.03,-0.08 0.03,-0.14l0 -0.07zm0.63 0.23l0.44 -0.04c0.02,0.05 0.04,0.09 0.08,0.11 0.03,0.02 0.08,0.03 0.13,0.03 0.06,0 0.11,-0.01 0.14,-0.04 0.03,-0.02 0.04,-0.04 0.04,-0.07 0,-0.03 -0.02,-0.06 -0.05,-0.08 -0.02,-0.01 -0.09,-0.03 -0.19,-0.05 -0.16,-0.03 -0.26,-0.05 -0.32,-0.08 -0.06,-0.02 -0.11,-0.06 -0.15,-0.12 -0.04,-0.06 -0.06,-0.12 -0.06,-0.19 0,-0.08 0.02,-0.14 0.07,-0.2 0.04,-0.06 0.11,-0.1 0.19,-0.13 0.08,-0.03 0.18,-0.04 0.32,-0.04 0.14,0 0.24,0.01 0.31,0.03 0.07,0.02 0.12,0.05 0.17,0.1 0.04,0.05 0.08,0.11 0.11,0.18l-0.42 0.04c-0.01,-0.04 -0.03,-0.06 -0.05,-0.08 -0.03,-0.02 -0.08,-0.04 -0.13,-0.04 -0.05,0 -0.09,0.01 -0.11,0.03 -0.02,0.02 -0.03,0.04 -0.03,0.07 0,0.03 0.01,0.05 0.04,0.07 0.03,0.02 0.09,0.03 0.19,0.04 0.15,0.02 0.26,0.04 0.33,0.07 0.07,0.03 0.13,0.07 0.17,0.13 0.04,0.06 0.06,0.12 0.06,0.18 0,0.07 -0.02,0.13 -0.06,0.2 -0.04,0.06 -0.1,0.11 -0.19,0.15 -0.09,0.04 -0.21,0.06 -0.36,0.06 -0.21,0 -0.37,-0.03 -0.46,-0.09 -0.09,-0.06 -0.15,-0.15 -0.17,-0.26zm1.47 -1.29l0.45 0 0 1.62 -0.45 0 0 -1.62zm1.97 1.62l-0.42 0 0 -0.19c-0.06,0.08 -0.13,0.13 -0.19,0.17 -0.06,0.03 -0.14,0.05 -0.23,0.05 -0.12,0 -0.22,-0.04 -0.29,-0.11 -0.07,-0.07 -0.11,-0.19 -0.11,-0.34l0 -0.75 0.45 0 0 0.65c0,0.07 0.01,0.13 0.04,0.16 0.03,0.03 0.07,0.05 0.11,0.05 0.05,0 0.1,-0.02 0.13,-0.06 0.03,-0.04 0.05,-0.12 0.05,-0.22l0 -0.57 0.45 0 0 1.17zm0.28 -1.17l0.42 0 0 0.17c0.06,-0.07 0.12,-0.12 0.18,-0.15 0.06,-0.03 0.14,-0.05 0.22,-0.05 0.09,0 0.17,0.02 0.22,0.05 0.05,0.03 0.1,0.08 0.13,0.15 0.07,-0.08 0.13,-0.13 0.19,-0.16 0.06,-0.03 0.13,-0.04 0.21,-0.04 0.13,0 0.22,0.04 0.29,0.11 0.07,0.07 0.11,0.19 0.11,0.35l0 0.74 -0.45 0 0 -0.67c0,-0.05 -0.01,-0.09 -0.03,-0.12 -0.03,-0.04 -0.07,-0.06 -0.11,-0.06 -0.05,0 -0.1,0.02 -0.13,0.06 -0.03,0.04 -0.05,0.1 -0.05,0.18l0 0.61 -0.45 0 0 -0.65c0,-0.05 -0,-0.09 -0.01,-0.11 -0.01,-0.03 -0.03,-0.05 -0.05,-0.07 -0.02,-0.02 -0.05,-0.03 -0.08,-0.03 -0.05,0 -0.09,0.02 -0.13,0.06 -0.03,0.04 -0.05,0.1 -0.05,0.19l0 0.6 -0.45 0 0 -1.17zm2.27 -0.44l0.45 0 0 0.3 -0.45 0 0 -0.3zm0 0.44l0.45 0 0 1.17 -0.45 0 0 -1.17z"/>
   <path class="fil3" d="M0.66 11.7l0.15 0.05c-0.02,0.08 -0.06,0.14 -0.11,0.19 -0.05,0.04 -0.12,0.06 -0.2,0.06 -0.1,0 -0.18,-0.03 -0.25,-0.1 -0.06,-0.07 -0.1,-0.16 -0.1,-0.28 0,-0.13 0.03,-0.22 0.1,-0.29 0.06,-0.07 0.15,-0.1 0.26,-0.1 0.09,0 0.17,0.03 0.23,0.08 0.03,0.03 0.06,0.08 0.08,0.14l-0.15 0.04c-0.01,-0.04 -0.03,-0.07 -0.06,-0.09 -0.03,-0.02 -0.06,-0.03 -0.1,-0.03 -0.06,0 -0.1,0.02 -0.14,0.06 -0.03,0.04 -0.05,0.11 -0.05,0.19 0,0.1 0.02,0.16 0.05,0.2 0.03,0.04 0.08,0.06 0.13,0.06 0.04,0 0.08,-0.01 0.1,-0.04 0.03,-0.03 0.05,-0.07 0.06,-0.12zm0.24 -0c0,-0.05 0.01,-0.09 0.04,-0.14 0.02,-0.05 0.06,-0.08 0.1,-0.1 0.04,-0.02 0.09,-0.04 0.15,-0.04 0.08,0 0.15,0.03 0.2,0.08 0.05,0.05 0.08,0.12 0.08,0.2 0,0.08 -0.03,0.15 -0.08,0.21 -0.05,0.05 -0.12,0.08 -0.2,0.08 -0.05,0 -0.1,-0.01 -0.14,-0.03 -0.05,-0.02 -0.08,-0.06 -0.1,-0.1 -0.02,-0.04 -0.04,-0.1 -0.04,-0.16zm0.15 0.01c0,0.05 0.01,0.1 0.04,0.12 0.03,0.03 0.06,0.04 0.1,0.04 0.04,0 0.07,-0.01 0.09,-0.04 0.03,-0.03 0.04,-0.07 0.04,-0.13 0,-0.05 -0.01,-0.09 -0.04,-0.12 -0.03,-0.03 -0.06,-0.04 -0.09,-0.04 -0.04,0 -0.07,0.01 -0.1,0.04 -0.03,0.03 -0.04,0.07 -0.04,0.12zm0.52 -0.27l0.13 0 0 0.07c0.05,-0.06 0.1,-0.09 0.17,-0.09 0.03,0 0.07,0.01 0.09,0.02 0.03,0.01 0.05,0.04 0.06,0.07 0.02,-0.03 0.05,-0.05 0.08,-0.07 0.03,-0.01 0.06,-0.02 0.09,-0.02 0.04,0 0.07,0.01 0.1,0.02 0.03,0.02 0.05,0.04 0.06,0.07 0.01,0.02 0.01,0.06 0.01,0.11l0 0.35 -0.14 0 0 -0.31c0,-0.05 -0.01,-0.09 -0.02,-0.1 -0.01,-0.02 -0.03,-0.03 -0.06,-0.03 -0.02,0 -0.04,0.01 -0.06,0.02 -0.02,0.01 -0.03,0.03 -0.04,0.05 -0.01,0.02 -0.01,0.06 -0.01,0.11l0 0.26 -0.14 0 0 -0.3c0,-0.05 -0,-0.09 -0.01,-0.1 -0.01,-0.02 -0.01,-0.03 -0.02,-0.03 -0.01,-0.01 -0.03,-0.01 -0.04,-0.01 -0.02,0 -0.04,0.01 -0.06,0.02 -0.02,0.01 -0.03,0.03 -0.04,0.05 -0.01,0.02 -0.01,0.06 -0.01,0.11l0 0.27 -0.14 0 0 -0.55zm1.31 0.55l0 -0.08c-0.02,0.03 -0.05,0.05 -0.08,0.07 -0.03,0.02 -0.07,0.03 -0.1,0.03 -0.04,0 -0.07,-0.01 -0.1,-0.02 -0.03,-0.02 -0.05,-0.04 -0.06,-0.07 -0.01,-0.03 -0.02,-0.07 -0.02,-0.12l0 -0.35 0.14 0 0 0.25c0,0.08 0,0.12 0.01,0.14 0.01,0.02 0.01,0.03 0.03,0.04 0.01,0.01 0.03,0.02 0.05,0.02 0.02,0 0.05,-0.01 0.07,-0.02 0.02,-0.01 0.03,-0.03 0.04,-0.05 0.01,-0.02 0.01,-0.07 0.01,-0.15l0 -0.23 0.14 0 0 0.55 -0.13 0zm0.78 0l-0.14 0 0 -0.28c0,-0.06 -0,-0.1 -0.01,-0.11 -0.01,-0.02 -0.02,-0.03 -0.03,-0.04 -0.01,-0.01 -0.03,-0.01 -0.05,-0.01 -0.03,0 -0.05,0.01 -0.07,0.02 -0.02,0.01 -0.03,0.03 -0.04,0.05 -0.01,0.02 -0.01,0.06 -0.01,0.13l0 0.25 -0.14 0 0 -0.55 0.13 0 0 0.08c0.05,-0.06 0.11,-0.09 0.18,-0.09 0.03,0 0.06,0.01 0.09,0.02 0.03,0.01 0.05,0.03 0.06,0.04 0.01,0.02 0.02,0.04 0.03,0.06 0.01,0.02 0.01,0.05 0.01,0.1l0 0.34zm0.15 -0.62l0 -0.13 0.14 0 0 0.13 -0.14 0zm0 0.62l0 -0.55 0.14 0 0 0.55 -0.14 0zm0.77 -0.38l-0.14 0.03c-0,-0.03 -0.02,-0.05 -0.03,-0.06 -0.02,-0.01 -0.04,-0.02 -0.07,-0.02 -0.04,0 -0.06,0.01 -0.09,0.04 -0.02,0.02 -0.03,0.07 -0.03,0.13 0,0.06 0.01,0.11 0.03,0.14 0.02,0.03 0.05,0.04 0.09,0.04 0.03,0 0.05,-0.01 0.07,-0.02 0.02,-0.02 0.03,-0.04 0.04,-0.08l0.14 0.02c-0.01,0.07 -0.04,0.11 -0.08,0.15 -0.04,0.03 -0.1,0.05 -0.17,0.05 -0.08,0 -0.14,-0.03 -0.19,-0.08 -0.05,-0.05 -0.07,-0.12 -0.07,-0.21 0,-0.09 0.02,-0.16 0.07,-0.21 0.05,-0.05 0.11,-0.08 0.19,-0.08 0.07,0 0.12,0.01 0.16,0.04 0.04,0.03 0.07,0.07 0.08,0.13zm0.22 0.01l-0.13 -0.02c0.01,-0.05 0.04,-0.09 0.08,-0.12 0.04,-0.03 0.09,-0.04 0.16,-0.04 0.06,0 0.11,0.01 0.14,0.02 0.03,0.02 0.05,0.03 0.07,0.06 0.01,0.02 0.02,0.07 0.02,0.13l-0 0.17c0,0.05 0,0.08 0.01,0.11 0,0.02 0.01,0.05 0.03,0.07l-0.14 0c-0,-0.01 -0.01,-0.02 -0.01,-0.04 -0,-0.01 -0,-0.01 -0.01,-0.02 -0.02,0.02 -0.05,0.04 -0.08,0.05 -0.03,0.01 -0.06,0.02 -0.09,0.02 -0.06,0 -0.1,-0.02 -0.13,-0.05 -0.03,-0.03 -0.05,-0.07 -0.05,-0.12 0,-0.03 0.01,-0.06 0.02,-0.08 0.01,-0.02 0.04,-0.04 0.06,-0.06 0.03,-0.01 0.06,-0.02 0.11,-0.03 0.07,-0.01 0.11,-0.02 0.14,-0.04l0 -0.01c0,-0.03 -0.01,-0.05 -0.02,-0.06 -0.01,-0.01 -0.04,-0.02 -0.08,-0.02 -0.03,0 -0.05,0.01 -0.06,0.02 -0.01,0.01 -0.03,0.03 -0.04,0.05zm0.19 0.12c-0.02,0.01 -0.05,0.01 -0.09,0.02 -0.04,0.01 -0.07,0.02 -0.08,0.03 -0.02,0.01 -0.03,0.03 -0.03,0.05 0,0.02 0.01,0.04 0.02,0.05 0.02,0.01 0.03,0.02 0.06,0.02 0.03,0 0.05,-0.01 0.07,-0.03 0.02,-0.01 0.03,-0.03 0.03,-0.05 0,-0.01 0.01,-0.04 0.01,-0.07l0 -0.03zm0.76 -0.12l-0.14 0.03c-0,-0.03 -0.02,-0.05 -0.03,-0.06 -0.02,-0.01 -0.04,-0.02 -0.07,-0.02 -0.04,0 -0.06,0.01 -0.09,0.04 -0.02,0.02 -0.03,0.07 -0.03,0.13 0,0.06 0.01,0.11 0.03,0.14 0.02,0.03 0.05,0.04 0.09,0.04 0.03,0 0.05,-0.01 0.07,-0.02 0.02,-0.02 0.03,-0.04 0.04,-0.08l0.14 0.02c-0.01,0.07 -0.04,0.11 -0.08,0.15 -0.04,0.03 -0.1,0.05 -0.17,0.05 -0.08,0 -0.14,-0.03 -0.19,-0.08 -0.05,-0.05 -0.07,-0.12 -0.07,-0.21 0,-0.09 0.02,-0.16 0.07,-0.21 0.05,-0.05 0.11,-0.08 0.19,-0.08 0.07,0 0.12,0.01 0.16,0.04 0.04,0.03 0.07,0.07 0.08,0.13zm-0.4 0.59l0 -0.06c0.04,0 0.07,0.01 0.1,0.01 0.03,0 0.05,-0.01 0.07,-0.02 0.01,-0.01 0.02,-0.02 0.02,-0.03 0,-0.01 -0.01,-0.02 -0.02,-0.03 -0.01,-0.01 -0.03,-0.01 -0.05,-0.01 -0.02,0 -0.04,0 -0.07,0.01l0.01 -0.05c0.03,-0.01 0.06,-0.01 0.09,-0.01 0.04,0 0.08,0.01 0.1,0.03 0.02,0.02 0.03,0.04 0.03,0.07 0,0.03 -0.01,0.05 -0.04,0.07 -0.03,0.03 -0.08,0.04 -0.14,0.04 -0.04,0 -0.08,-0 -0.1,-0.01zm0.62 -0.58l-0.13 -0.02c0.01,-0.05 0.04,-0.09 0.08,-0.12 0.04,-0.03 0.09,-0.04 0.16,-0.04 0.06,0 0.11,0.01 0.14,0.02 0.03,0.02 0.05,0.03 0.07,0.06 0.01,0.02 0.02,0.07 0.02,0.13l-0 0.17c0,0.05 0,0.08 0.01,0.11 0,0.02 0.01,0.05 0.03,0.07l-0.14 0c-0,-0.01 -0.01,-0.02 -0.01,-0.04 -0,-0.01 -0,-0.01 -0.01,-0.02 -0.02,0.02 -0.05,0.04 -0.08,0.05 -0.03,0.01 -0.06,0.02 -0.09,0.02 -0.06,0 -0.1,-0.02 -0.13,-0.05 -0.03,-0.03 -0.05,-0.07 -0.05,-0.12 0,-0.03 0.01,-0.06 0.02,-0.08 0.01,-0.02 0.04,-0.04 0.06,-0.06 0.03,-0.01 0.06,-0.02 0.11,-0.03 0.07,-0.01 0.11,-0.02 0.14,-0.04l0 -0.01c0,-0.03 -0.01,-0.05 -0.02,-0.06 -0.01,-0.01 -0.04,-0.02 -0.08,-0.02 -0.03,0 -0.05,0.01 -0.06,0.02 -0.01,0.01 -0.03,0.03 -0.04,0.05zm0.19 0.12c-0.02,0.01 -0.05,0.01 -0.09,0.02 -0.04,0.01 -0.07,0.02 -0.08,0.03 -0.02,0.01 -0.03,0.03 -0.03,0.05 0,0.02 0.01,0.04 0.02,0.05 0.02,0.01 0.03,0.02 0.06,0.02 0.03,0 0.05,-0.01 0.07,-0.03 0.02,-0.01 0.03,-0.03 0.03,-0.05 0,-0.01 0.01,-0.04 0.01,-0.07l0 -0.03zm-0.19 -0.36l-0.07 0c-0,-0.01 -0,-0.01 -0,-0.02 0,-0.04 0.01,-0.06 0.03,-0.08 0.02,-0.02 0.04,-0.03 0.07,-0.03 0.01,0 0.02,0 0.03,0 0.01,0 0.03,0.01 0.06,0.02 0.03,0.01 0.05,0.02 0.06,0.02 0.01,0 0.02,-0 0.03,-0.01 0.01,-0.01 0.01,-0.02 0.01,-0.03l0.07 0c-0,0.05 -0.01,0.08 -0.03,0.1 -0.02,0.02 -0.04,0.03 -0.07,0.03 -0.01,0 -0.02,-0 -0.03,-0 -0.01,-0 -0.03,-0.01 -0.06,-0.02 -0.03,-0.01 -0.05,-0.02 -0.07,-0.02 -0.01,0 -0.02,0 -0.03,0.01 -0.01,0.01 -0.01,0.02 -0.01,0.04zm0.44 0.34c0,-0.05 0.01,-0.09 0.04,-0.14 0.02,-0.05 0.06,-0.08 0.1,-0.1 0.04,-0.02 0.09,-0.04 0.15,-0.04 0.08,0 0.15,0.03 0.2,0.08 0.05,0.05 0.08,0.12 0.08,0.2 0,0.08 -0.03,0.15 -0.08,0.21 -0.05,0.05 -0.12,0.08 -0.2,0.08 -0.05,0 -0.1,-0.01 -0.14,-0.03 -0.05,-0.02 -0.08,-0.06 -0.1,-0.1 -0.02,-0.04 -0.04,-0.1 -0.04,-0.16zm0.15 0.01c0,0.05 0.01,0.1 0.04,0.12 0.03,0.03 0.06,0.04 0.1,0.04 0.04,0 0.07,-0.01 0.09,-0.04 0.03,-0.03 0.04,-0.07 0.04,-0.13 0,-0.05 -0.01,-0.09 -0.04,-0.12 -0.03,-0.03 -0.06,-0.04 -0.09,-0.04 -0.04,0 -0.07,0.01 -0.1,0.04 -0.03,0.03 -0.04,0.07 -0.04,0.12zm0.97 0.27l-0.22 -0.55 0.15 0 0.1 0.28 0.03 0.09c0.01,-0.02 0.01,-0.04 0.01,-0.05 0,-0.02 0.01,-0.03 0.02,-0.05l0.1 -0.28 0.15 0 -0.22 0.55 -0.13 0zm0.44 -0.62l0 -0.13 0.14 0 0 0.13 -0.14 0zm0 0.62l0 -0.55 0.14 0 0 0.55 -0.14 0zm0.24 -0.15l0.15 -0.02c0.01,0.03 0.02,0.05 0.04,0.06 0.02,0.01 0.05,0.02 0.08,0.02 0.04,0 0.07,-0.01 0.08,-0.02 0.01,-0.01 0.02,-0.02 0.02,-0.04 0,-0.01 -0,-0.02 -0.01,-0.03 -0.01,-0.01 -0.02,-0.01 -0.05,-0.02 -0.12,-0.03 -0.19,-0.05 -0.22,-0.07 -0.04,-0.03 -0.06,-0.07 -0.06,-0.12 0,-0.05 0.02,-0.09 0.06,-0.12 0.04,-0.03 0.1,-0.05 0.17,-0.05 0.07,0 0.13,0.01 0.17,0.04 0.04,0.02 0.06,0.06 0.08,0.11l-0.14 0.03c-0.01,-0.02 -0.02,-0.04 -0.03,-0.05 -0.02,-0.01 -0.04,-0.02 -0.07,-0.02 -0.04,0 -0.07,0.01 -0.08,0.02 -0.01,0.01 -0.02,0.02 -0.02,0.03 0,0.01 0,0.02 0.01,0.03 0.01,0.01 0.06,0.02 0.14,0.04 0.08,0.02 0.13,0.04 0.16,0.06 0.03,0.03 0.05,0.06 0.05,0.11 0,0.05 -0.02,0.09 -0.06,0.13 -0.04,0.04 -0.1,0.05 -0.19,0.05 -0.07,0 -0.13,-0.02 -0.18,-0.05 -0.04,-0.03 -0.07,-0.07 -0.09,-0.12zm1 0.15l0 -0.08c-0.02,0.03 -0.05,0.05 -0.08,0.07 -0.03,0.02 -0.07,0.03 -0.1,0.03 -0.04,0 -0.07,-0.01 -0.1,-0.02 -0.03,-0.02 -0.05,-0.04 -0.06,-0.07 -0.01,-0.03 -0.02,-0.07 -0.02,-0.12l0 -0.35 0.14 0 0 0.25c0,0.08 0,0.12 0.01,0.14 0.01,0.02 0.01,0.03 0.03,0.04 0.01,0.01 0.03,0.02 0.05,0.02 0.02,0 0.05,-0.01 0.07,-0.02 0.02,-0.01 0.03,-0.03 0.04,-0.05 0.01,-0.02 0.01,-0.07 0.01,-0.15l0 -0.23 0.14 0 0 0.55 -0.13 0zm0.39 -0.38l-0.13 -0.02c0.01,-0.05 0.04,-0.09 0.08,-0.12 0.04,-0.03 0.09,-0.04 0.16,-0.04 0.06,0 0.11,0.01 0.14,0.02 0.03,0.02 0.05,0.03 0.07,0.06 0.01,0.02 0.02,0.07 0.02,0.13l-0 0.17c0,0.05 0,0.08 0.01,0.11 0,0.02 0.01,0.05 0.03,0.07l-0.14 0c-0,-0.01 -0.01,-0.02 -0.01,-0.04 -0,-0.01 -0,-0.01 -0.01,-0.02 -0.02,0.02 -0.05,0.04 -0.08,0.05 -0.03,0.01 -0.06,0.02 -0.09,0.02 -0.06,0 -0.1,-0.02 -0.13,-0.05 -0.03,-0.03 -0.05,-0.07 -0.05,-0.12 0,-0.03 0.01,-0.06 0.02,-0.08 0.01,-0.02 0.04,-0.04 0.06,-0.06 0.03,-0.01 0.06,-0.02 0.11,-0.03 0.07,-0.01 0.11,-0.02 0.14,-0.04l0 -0.01c0,-0.03 -0.01,-0.05 -0.02,-0.06 -0.01,-0.01 -0.04,-0.02 -0.08,-0.02 -0.03,0 -0.05,0.01 -0.06,0.02 -0.01,0.01 -0.03,0.03 -0.04,0.05zm0.19 0.12c-0.02,0.01 -0.05,0.01 -0.09,0.02 -0.04,0.01 -0.07,0.02 -0.08,0.03 -0.02,0.01 -0.03,0.03 -0.03,0.05 0,0.02 0.01,0.04 0.02,0.05 0.02,0.01 0.03,0.02 0.06,0.02 0.03,0 0.05,-0.01 0.07,-0.03 0.02,-0.01 0.03,-0.03 0.03,-0.05 0,-0.01 0.01,-0.04 0.01,-0.07l0 -0.03zm0.28 0.26l0 -0.75 0.14 0 0 0.75 -0.14 0z"/>
   <path class="fil3" d="M4.28 10.79l0 -0.75 0.23 0 0.14 0.51 0.13 -0.51 0.23 0 0 0.75 -0.14 0 -0 -0.59 -0.15 0.59 -0.15 0 -0.15 -0.59 -0 0.59 -0.14 0zm0.99 -0.38l-0.13 -0.02c0.01,-0.05 0.04,-0.09 0.08,-0.12 0.04,-0.03 0.09,-0.04 0.16,-0.04 0.06,0 0.11,0.01 0.14,0.02 0.03,0.02 0.05,0.03 0.07,0.06 0.01,0.02 0.02,0.07 0.02,0.13l-0 0.17c0,0.05 0,0.08 0.01,0.11 0,0.02 0.01,0.05 0.03,0.07l-0.14 0c-0,-0.01 -0.01,-0.02 -0.01,-0.04 -0,-0.01 -0,-0.01 -0.01,-0.02 -0.02,0.02 -0.05,0.04 -0.08,0.05 -0.03,0.01 -0.06,0.02 -0.09,0.02 -0.06,0 -0.1,-0.02 -0.13,-0.05 -0.03,-0.03 -0.05,-0.07 -0.05,-0.12 0,-0.03 0.01,-0.06 0.02,-0.08 0.01,-0.02 0.04,-0.04 0.06,-0.06 0.03,-0.01 0.06,-0.02 0.11,-0.03 0.07,-0.01 0.11,-0.02 0.14,-0.04l0 -0.01c0,-0.03 -0.01,-0.05 -0.02,-0.06 -0.01,-0.01 -0.04,-0.02 -0.08,-0.02 -0.03,0 -0.05,0.01 -0.06,0.02 -0.01,0.01 -0.03,0.03 -0.04,0.05zm0.19 0.12c-0.02,0.01 -0.05,0.01 -0.09,0.02 -0.04,0.01 -0.07,0.02 -0.08,0.03 -0.02,0.01 -0.03,0.03 -0.03,0.05 0,0.02 0.01,0.04 0.02,0.05 0.02,0.01 0.03,0.02 0.06,0.02 0.03,0 0.05,-0.01 0.07,-0.03 0.02,-0.01 0.03,-0.03 0.03,-0.05 0,-0.01 0.01,-0.04 0.01,-0.07l0 -0.03zm0.42 0.26l-0.14 0 0 -0.55 0.13 0 0 0.08c0.02,-0.04 0.04,-0.06 0.06,-0.07 0.02,-0.01 0.04,-0.02 0.06,-0.02 0.03,0 0.06,0.01 0.1,0.03l-0.04 0.13c-0.02,-0.02 -0.05,-0.02 -0.07,-0.02 -0.02,0 -0.04,0.01 -0.05,0.02 -0.01,0.01 -0.03,0.03 -0.03,0.06 -0.01,0.03 -0.01,0.09 -0.01,0.18l0 0.17zm0.27 0l0 -0.75 0.14 0 0 0.4 0.17 -0.19 0.18 0 -0.19 0.2 0.2 0.35 -0.16 0 -0.14 -0.25 -0.07 0.07 0 0.18 -0.14 0zm0.91 -0.17l0.14 0.02c-0.02,0.05 -0.05,0.09 -0.09,0.12 -0.04,0.03 -0.09,0.04 -0.15,0.04 -0.1,0 -0.17,-0.03 -0.21,-0.09 -0.04,-0.05 -0.05,-0.11 -0.05,-0.19 0,-0.09 0.02,-0.16 0.07,-0.21 0.05,-0.05 0.11,-0.08 0.18,-0.08 0.08,0 0.15,0.03 0.19,0.08 0.05,0.05 0.07,0.14 0.07,0.25l-0.36 0c0,0.04 0.01,0.08 0.03,0.1 0.02,0.02 0.05,0.04 0.08,0.04 0.02,0 0.04,-0.01 0.06,-0.02 0.02,-0.01 0.03,-0.03 0.03,-0.06zm0.01 -0.15c-0,-0.04 -0.01,-0.07 -0.03,-0.1 -0.02,-0.02 -0.05,-0.03 -0.08,-0.03 -0.03,0 -0.06,0.01 -0.08,0.03 -0.02,0.02 -0.03,0.05 -0.03,0.09l0.22 0zm0.51 -0.23l0 0.11 -0.1 0 0 0.22c0,0.04 0,0.07 0,0.08 0,0.01 0.01,0.01 0.01,0.02 0.01,0 0.01,0.01 0.02,0.01 0.01,0 0.03,-0 0.06,-0.01l0.01 0.11c-0.03,0.01 -0.07,0.02 -0.11,0.02 -0.03,0 -0.05,-0 -0.07,-0.01 -0.02,-0.01 -0.04,-0.02 -0.05,-0.03 -0.01,-0.01 -0.02,-0.03 -0.02,-0.06 -0,-0.02 -0,-0.05 -0,-0.1l0 -0.24 -0.07 0 0 -0.11 0.07 0 0 -0.11 0.14 -0.09 0 0.19 0.1 0zm0.1 -0.07l0 -0.13 0.14 0 0 0.13 -0.14 0zm0 0.62l0 -0.55 0.14 0 0 0.55 -0.14 0zm0.79 0l-0.14 0 0 -0.28c0,-0.06 -0,-0.1 -0.01,-0.11 -0.01,-0.02 -0.02,-0.03 -0.03,-0.04 -0.01,-0.01 -0.03,-0.01 -0.05,-0.01 -0.03,0 -0.05,0.01 -0.07,0.02 -0.02,0.01 -0.03,0.03 -0.04,0.05 -0.01,0.02 -0.01,0.06 -0.01,0.13l0 0.25 -0.14 0 0 -0.55 0.13 0 0 0.08c0.05,-0.06 0.11,-0.09 0.18,-0.09 0.03,0 0.06,0.01 0.09,0.02 0.03,0.01 0.05,0.03 0.06,0.04 0.01,0.02 0.02,0.04 0.03,0.06 0.01,0.02 0.01,0.06 0.01,0.1l0 0.34zm0.13 0.03l0.17 0.02c0,0.02 0.01,0.03 0.02,0.04 0.01,0.01 0.04,0.02 0.06,0.02 0.04,0 0.07,-0.01 0.09,-0.02 0.01,-0.01 0.02,-0.02 0.03,-0.04 0,-0.01 0.01,-0.03 0.01,-0.07l0 -0.08c-0.04,0.06 -0.1,0.09 -0.16,0.09 -0.07,0 -0.13,-0.03 -0.17,-0.09 -0.03,-0.05 -0.05,-0.11 -0.05,-0.18 0,-0.09 0.02,-0.16 0.07,-0.21 0.04,-0.05 0.1,-0.07 0.16,-0.07 0.07,0 0.12,0.03 0.17,0.09l0 -0.08 0.13 0 0 0.49c0,0.06 -0.01,0.11 -0.02,0.14 -0.01,0.03 -0.03,0.06 -0.04,0.08 -0.02,0.02 -0.04,0.03 -0.08,0.04 -0.03,0.01 -0.07,0.02 -0.12,0.02 -0.09,0 -0.16,-0.02 -0.2,-0.05 -0.04,-0.03 -0.06,-0.07 -0.06,-0.12 0,-0 0,-0.01 0,-0.02zm0.13 -0.32c0,0.06 0.01,0.1 0.03,0.13 0.02,0.03 0.05,0.04 0.08,0.04 0.04,0 0.06,-0.01 0.09,-0.04 0.02,-0.03 0.04,-0.07 0.04,-0.12 0,-0.06 -0.01,-0.1 -0.03,-0.13 -0.02,-0.03 -0.05,-0.04 -0.09,-0.04 -0.03,0 -0.06,0.01 -0.09,0.04 -0.02,0.03 -0.03,0.07 -0.03,0.12zm1.49 0.19l-0.09 0.11c-0.04,-0.02 -0.08,-0.05 -0.12,-0.09 -0.03,0.03 -0.06,0.05 -0.1,0.06 -0.03,0.01 -0.08,0.02 -0.12,0.02 -0.09,0 -0.16,-0.03 -0.21,-0.08 -0.04,-0.04 -0.05,-0.09 -0.05,-0.14 0,-0.05 0.01,-0.09 0.04,-0.13 0.03,-0.04 0.07,-0.07 0.13,-0.1 -0.03,-0.03 -0.05,-0.06 -0.06,-0.09 -0.01,-0.03 -0.02,-0.05 -0.02,-0.08 0,-0.05 0.02,-0.08 0.05,-0.12 0.04,-0.03 0.09,-0.05 0.16,-0.05 0.07,0 0.12,0.02 0.15,0.05 0.04,0.03 0.05,0.07 0.05,0.12 0,0.03 -0.01,0.06 -0.03,0.09 -0.02,0.03 -0.05,0.06 -0.11,0.09l0.1 0.14c0.01,-0.02 0.02,-0.05 0.03,-0.09l0.13 0.03c-0.01,0.05 -0.02,0.08 -0.03,0.1 -0.01,0.02 -0.02,0.04 -0.03,0.05 0.02,0.02 0.04,0.03 0.06,0.05 0.03,0.02 0.04,0.03 0.06,0.04zm-0.39 -0.41l0.04 -0.03c0.03,-0.02 0.04,-0.04 0.04,-0.07 0,-0.02 -0.01,-0.03 -0.02,-0.05 -0.01,-0.01 -0.03,-0.02 -0.06,-0.02 -0.02,0 -0.04,0.01 -0.05,0.02 -0.01,0.01 -0.02,0.02 -0.02,0.04 0,0.02 0.01,0.04 0.03,0.06l0.04 0.04zm-0.06 0.16c-0.03,0.02 -0.06,0.04 -0.07,0.06 -0.02,0.02 -0.02,0.05 -0.02,0.07 0,0.03 0.01,0.06 0.03,0.08 0.02,0.02 0.05,0.03 0.08,0.03 0.02,0 0.04,-0 0.06,-0.01 0.02,-0.01 0.04,-0.02 0.07,-0.04l-0.15 -0.18z"/>
  </g>
 </g>
</svg>
